<?xml version="1.0" encoding="UTF-8"?>
<svg xmlns="http://www.w3.org/2000/svg" width="800" height="500" viewBox="0 0 800 500" font-family="Helvetica, Arial, sans-serif" role="img">
<title>Reconstruction time vs node count</title>
<desc>Line chart comparing reconstruction time across node counts for innerHTML swap, keyed reconcile, and identity reconciliation</desc>
<style>
  .axis { stroke: #000; stroke-width: 1; fill: none; }
  .grid { stroke: #DDD; stroke-width: 0.5; fill: none; }
  .tick { font-size: 11px; fill: #000; }
  .title { font-size: 14px; font-weight: bold; fill: #000; }
  .legend { font-size: 12px; fill: #000; }
  .axis-label { font-size: 12px; fill: #000; }
  .cell-text { font-size: 12px; fill: #000; }
</style>
<rect x="0" y="0" width="800" height="500" fill="#FFFFFF"/>
<text x="400" y="30" text-anchor="middle" class="title">Fig. 6. Reconstruction Time vs Node Count (log scale)</text>
<line class="axis" x1="90" y1="390" x2="760" y2="390"/>
<line class="axis" x1="90" y1="60" x2="90" y2="390"/>
<line class="grid" x1="90" y1="390" x2="760" y2="390"/>
<text x="82" y="394" text-anchor="end" class="tick">1 ms</text>
<line class="grid" x1="90" y1="307.5" x2="760" y2="307.5"/>
<text x="82" y="311.5" text-anchor="end" class="tick">10 ms</text>
<line class="grid" x1="90" y1="225" x2="760" y2="225"/>
<text x="82" y="229" text-anchor="end" class="tick">100 ms</text>
<line class="grid" x1="90" y1="142.5" x2="760" y2="142.5"/>
<text x="82" y="146.5" text-anchor="end" class="tick">1000 ms</text>
<line class="grid" x1="90" y1="60" x2="760" y2="60"/>
<text x="82" y="64" text-anchor="end" class="tick">10000 ms</text>
<line class="grid" x1="90" y1="60" x2="90" y2="390"/>
<text x="90" y="408" text-anchor="middle" class="tick">10</text>
<line class="grid" x1="224" y1="60" x2="224" y2="390"/>
<text x="224" y="408" text-anchor="middle" class="tick">50</text>
<line class="grid" x1="358" y1="60" x2="358" y2="390"/>
<text x="358" y="408" text-anchor="middle" class="tick">100</text>
<line class="grid" x1="492" y1="60" x2="492" y2="390"/>
<text x="492" y="408" text-anchor="middle" class="tick">500</text>
<line class="grid" x1="626" y1="60" x2="626" y2="390"/>
<text x="626" y="408" text-anchor="middle" class="tick">1000</text>
<line class="grid" x1="760" y1="60" x2="760" y2="390"/>
<text x="760" y="408" text-anchor="middle" class="tick">2000</text>
<text x="425" y="432" text-anchor="middle" class="axis-label">Number of nodes</text>
<text x="20" y="225" text-anchor="middle" class="axis-label" transform="rotate(-90, 20, 225)">Reconstruction time (ms)</text>
<path d="M 90 361.84797858280785 L 224 321.6196143266772 L 358 324.09993109902194 L 492 268.16019556110683 L 626 267.8768926846817 L 760 225.48517417451765" fill="none" stroke="#666666" stroke-width="2" stroke-dasharray="6,4"/>
<polygon points="90,355.84797858280785 85,365.84797858280785 95,365.84797858280785" fill="#666666" stroke="#000" stroke-width="0.5"/>
<polygon points="224,315.6196143266772 219,325.6196143266772 229,325.6196143266772" fill="#666666" stroke="#000" stroke-width="0.5"/>
<polygon points="358,318.09993109902194 353,328.09993109902194 363,328.09993109902194" fill="#666666" stroke="#000" stroke-width="0.5"/>
<polygon points="492,262.16019556110683 487,272.16019556110683 497,272.16019556110683" fill="#666666" stroke="#000" stroke-width="0.5"/>
<polygon points="626,261.8768926846817 621,271.8768926846817 631,271.8768926846817" fill="#666666" stroke="#000" stroke-width="0.5"/>
<polygon points="760,219.48517417451765 755,229.48517417451765 765,229.48517417451765" fill="#666666" stroke="#000" stroke-width="0.5"/>
<path d="M 90 353.0200009576588 L 224 350.2219076285697 L 358 312.6547739085689 L 492 241.0080712738631 L 626 207.22647835311926 L 760 143.00508184136953" fill="none" stroke="#999999" stroke-width="2"/>
<rect x="85" y="348.0200009576588" width="10" height="10" fill="#999999" stroke="#000" stroke-width="0.5"/>
<rect x="219" y="345.2219076285697" width="10" height="10" fill="#999999" stroke="#000" stroke-width="0.5"/>
<rect x="353" y="307.6547739085689" width="10" height="10" fill="#999999" stroke="#000" stroke-width="0.5"/>
<rect x="487" y="236.0080712738631" width="10" height="10" fill="#999999" stroke="#000" stroke-width="0.5"/>
<rect x="621" y="202.22647835311926" width="10" height="10" fill="#999999" stroke="#000" stroke-width="0.5"/>
<rect x="755" y="138.00508184136953" width="10" height="10" fill="#999999" stroke="#000" stroke-width="0.5"/>
<path d="M 90 370.6941075490577 L 224 354.2007943373017 L 358 285.638901483892 L 492 248.5028353319501 L 626 209.7978665399338 L 760 139.24548856996094" fill="none" stroke="#222222" stroke-width="2"/>
<circle cx="90" cy="370.6941075490577" r="5" fill="#222222" stroke="#000" stroke-width="0.5"/>
<circle cx="224" cy="354.2007943373017" r="5" fill="#222222" stroke="#000" stroke-width="0.5"/>
<circle cx="358" cy="285.638901483892" r="5" fill="#222222" stroke="#000" stroke-width="0.5"/>
<circle cx="492" cy="248.5028353319501" r="5" fill="#222222" stroke="#000" stroke-width="0.5"/>
<circle cx="626" cy="209.7978665399338" r="5" fill="#222222" stroke="#000" stroke-width="0.5"/>
<circle cx="760" cy="139.24548856996094" r="5" fill="#222222" stroke="#000" stroke-width="0.5"/>
<polygon points="117,452 112,462 122,462" fill="#666666" stroke="#000" stroke-width="0.5"/>
<text x="132" y="462" class="legend">A. innerHTML swap</text>
<rect x="112" y="471" width="10" height="10" fill="#999999" stroke="#000" stroke-width="0.5"/>
<text x="132" y="480" class="legend">B. Keyed reconcile</text>
<circle cx="117" cy="494" r="5" fill="#222222" stroke="#000" stroke-width="0.5"/>
<text x="132" y="498" class="legend">C. Identity (proposed)</text>
</svg>
