<?xml version="1.0" encoding="UTF-8"?>
<svg xmlns="http://www.w3.org/2000/svg" width="800" height="460" viewBox="0 0 800 460" font-family="Helvetica, Arial, sans-serif" role="img">
<title>Reconstruction payload size vs node count</title>
<desc>Line chart comparing reconstruction payload size between innerHTML fragment, keyed entity tree JSON, and identity entity tree JSON</desc>
<style>
  .axis { stroke: #000; stroke-width: 1; fill: none; }
  .grid { stroke: #DDD; stroke-width: 0.5; fill: none; }
  .tick { font-size: 11px; fill: #000; }
  .title { font-size: 14px; font-weight: bold; fill: #000; }
  .legend { font-size: 12px; fill: #000; }
  .axis-label { font-size: 12px; fill: #000; }
  .cell-text { font-size: 12px; fill: #000; }
</style>
<rect x="0" y="0" width="800" height="460" fill="#FFFFFF"/>
<text x="400" y="30" text-anchor="middle" class="title">Fig. 7. Reconstruction Payload Size vs Node Count</text>
<line class="axis" x1="90" y1="360" x2="760" y2="360"/>
<line class="axis" x1="90" y1="60" x2="90" y2="360"/>
<line class="grid" x1="90" y1="360" x2="760" y2="360"/>
<text x="82" y="364" text-anchor="end" class="tick">0 KB</text>
<line class="grid" x1="90" y1="297.5" x2="760" y2="297.5"/>
<text x="82" y="301.5" text-anchor="end" class="tick">50 KB</text>
<line class="grid" x1="90" y1="235" x2="760" y2="235"/>
<text x="82" y="239" text-anchor="end" class="tick">100 KB</text>
<line class="grid" x1="90" y1="172.5" x2="760" y2="172.5"/>
<text x="82" y="176.5" text-anchor="end" class="tick">150 KB</text>
<line class="grid" x1="90" y1="110" x2="760" y2="110"/>
<text x="82" y="114" text-anchor="end" class="tick">200 KB</text>
<text x="90" y="378" text-anchor="middle" class="tick">10</text>
<text x="224" y="378" text-anchor="middle" class="tick">50</text>
<text x="358" y="378" text-anchor="middle" class="tick">100</text>
<text x="492" y="378" text-anchor="middle" class="tick">500</text>
<text x="626" y="378" text-anchor="middle" class="tick">1000</text>
<text x="760" y="378" text-anchor="middle" class="tick">2000</text>
<text x="425" y="402" text-anchor="middle" class="axis-label">Number of nodes</text>
<text x="20" y="210" text-anchor="middle" class="axis-label" transform="rotate(-90, 20, 210)">Payload size</text>
<path d="M 90 359.2875 L 224 356.3375 L 358 352.65 L 492 322.15 L 626 284.025 L 760 205.27499999999998" fill="none" stroke="#666666" stroke-width="2"/>
<polygon points="90,353.2875 85,363.2875 95,363.2875" fill="#666666" stroke="#000" stroke-width="0.5"/>
<polygon points="224,350.3375 219,360.3375 229,360.3375" fill="#666666" stroke="#000" stroke-width="0.5"/>
<polygon points="358,346.65 353,356.65 363,356.65" fill="#666666" stroke="#000" stroke-width="0.5"/>
<polygon points="492,316.15 487,326.15 497,326.15" fill="#666666" stroke="#000" stroke-width="0.5"/>
<polygon points="626,278.025 621,288.025 631,288.025" fill="#666666" stroke="#000" stroke-width="0.5"/>
<polygon points="760,199.27499999999998 755,209.27499999999998 765,209.27499999999998" fill="#666666" stroke="#000" stroke-width="0.5"/>
<path d="M 90 358.6075 L 224 352.9575 L 358 345.895 L 492 287.895 L 626 215.395 L 760 66.64499999999998" fill="none" stroke="#999999" stroke-width="2"/>
<rect x="85" y="353.6075" width="10" height="10" fill="#999999" stroke="#000" stroke-width="0.5"/>
<rect x="219" y="347.9575" width="10" height="10" fill="#999999" stroke="#000" stroke-width="0.5"/>
<rect x="353" y="340.895" width="10" height="10" fill="#999999" stroke="#000" stroke-width="0.5"/>
<rect x="487" y="282.895" width="10" height="10" fill="#999999" stroke="#000" stroke-width="0.5"/>
<rect x="621" y="210.395" width="10" height="10" fill="#999999" stroke="#000" stroke-width="0.5"/>
<rect x="755" y="61.64499999999998" width="10" height="10" fill="#999999" stroke="#000" stroke-width="0.5"/>
<path d="M 90 358.62 L 224 353.02 L 358 346.02 L 492 288.52 L 626 216.645 L 760 69.14499999999998" fill="none" stroke="#222222" stroke-width="2"/>
<circle cx="90" cy="358.62" r="5" fill="#222222" stroke="#000" stroke-width="0.5"/>
<circle cx="224" cy="353.02" r="5" fill="#222222" stroke="#000" stroke-width="0.5"/>
<circle cx="358" cy="346.02" r="5" fill="#222222" stroke="#000" stroke-width="0.5"/>
<circle cx="492" cy="288.52" r="5" fill="#222222" stroke="#000" stroke-width="0.5"/>
<circle cx="626" cy="216.645" r="5" fill="#222222" stroke="#000" stroke-width="0.5"/>
<circle cx="760" cy="69.14499999999998" r="5" fill="#222222" stroke="#000" stroke-width="0.5"/>
<polygon points="117,397 112,407 122,407" fill="#666666" stroke="#000" stroke-width="0.5"/>
<text x="132" y="407" class="legend">A. innerHTML fragment</text>
<rect x="112" y="416" width="10" height="10" fill="#999999" stroke="#000" stroke-width="0.5"/>
<text x="132" y="425" class="legend">B. Keyed entity tree JSON</text>
<circle cx="117" cy="439" r="5" fill="#222222" stroke="#000" stroke-width="0.5"/>
<text x="132" y="443" class="legend">C. Identity entity tree JSON</text>
</svg>
