<svg xmlns="http://www.w3.org/2000/svg" viewBox="0 0 560 360" font-family="Helvetica, Arial, sans-serif">
<rect width="560" height="360" fill="#fff"/>
<rect x="60" y="22" width="320" height="288" fill="none" stroke="#000"/>
<line x1="60" y1="182.0" x2="380" y2="182.0" stroke="#000" stroke-width="1" stroke-dasharray="4 2"/>
<line x1="56" y1="310" x2="60" y2="310" stroke="#000"/>
<line x1="60" y1="310" x2="380" y2="310" stroke="#e5e5e5" stroke-width="0.5"/>
<text x="53" y="313" font-size="9" fill="#000" text-anchor="end">0.80</text>
<line x1="56" y1="277.99999999999994" x2="60" y2="277.99999999999994" stroke="#000"/>
<line x1="60" y1="277.99999999999994" x2="380" y2="277.99999999999994" stroke="#e5e5e5" stroke-width="0.5"/>
<text x="53" y="280.99999999999994" font-size="9" fill="#000" text-anchor="end">0.85</text>
<line x1="56" y1="245.99999999999994" x2="60" y2="245.99999999999994" stroke="#000"/>
<line x1="60" y1="245.99999999999994" x2="380" y2="245.99999999999994" stroke="#e5e5e5" stroke-width="0.5"/>
<text x="53" y="248.99999999999994" font-size="9" fill="#000" text-anchor="end">0.90</text>
<line x1="56" y1="213.9999999999999" x2="60" y2="213.9999999999999" stroke="#000"/>
<line x1="60" y1="213.9999999999999" x2="380" y2="213.9999999999999" stroke="#e5e5e5" stroke-width="0.5"/>
<text x="53" y="216.9999999999999" font-size="9" fill="#000" text-anchor="end">0.95</text>
<line x1="56" y1="181.9999999999999" x2="60" y2="181.9999999999999" stroke="#000"/>
<line x1="60" y1="181.9999999999999" x2="380" y2="181.9999999999999" stroke="#e5e5e5" stroke-width="0.5"/>
<text x="53" y="184.9999999999999" font-size="9" fill="#000" text-anchor="end">1.00</text>
<line x1="56" y1="149.99999999999983" x2="60" y2="149.99999999999983" stroke="#000"/>
<line x1="60" y1="149.99999999999983" x2="380" y2="149.99999999999983" stroke="#e5e5e5" stroke-width="0.5"/>
<text x="53" y="152.99999999999983" font-size="9" fill="#000" text-anchor="end">1.05</text>
<line x1="56" y1="117.9999999999998" x2="60" y2="117.9999999999998" stroke="#000"/>
<line x1="60" y1="117.9999999999998" x2="380" y2="117.9999999999998" stroke="#e5e5e5" stroke-width="0.5"/>
<text x="53" y="120.9999999999998" font-size="9" fill="#000" text-anchor="end">1.10</text>
<line x1="56" y1="85.99999999999977" x2="60" y2="85.99999999999977" stroke="#000"/>
<line x1="60" y1="85.99999999999977" x2="380" y2="85.99999999999977" stroke="#e5e5e5" stroke-width="0.5"/>
<text x="53" y="88.99999999999977" font-size="9" fill="#000" text-anchor="end">1.15</text>
<line x1="56" y1="53.999999999999744" x2="60" y2="53.999999999999744" stroke="#000"/>
<line x1="60" y1="53.999999999999744" x2="380" y2="53.999999999999744" stroke="#e5e5e5" stroke-width="0.5"/>
<text x="53" y="56.999999999999744" font-size="9" fill="#000" text-anchor="end">1.20</text>
<line x1="56" y1="21.999999999999716" x2="60" y2="21.999999999999716" stroke="#000"/>
<line x1="60" y1="21.999999999999716" x2="380" y2="21.999999999999716" stroke="#e5e5e5" stroke-width="0.5"/>
<text x="53" y="24.999999999999716" font-size="9" fill="#000" text-anchor="end">1.25</text>
<line x1="74" y1="310" x2="74" y2="314" stroke="#000"/>
<text x="74" y="326" font-size="9" fill="#000" text-anchor="middle">10</text>
<line x1="162.699078956258" y1="310" x2="162.699078956258" y2="314" stroke="#000"/>
<text x="162.699078956258" y="326" font-size="9" fill="#000" text-anchor="middle">50</text>
<line x1="200.89969298541934" y1="310" x2="200.89969298541934" y2="314" stroke="#000"/>
<text x="200.89969298541934" y="326" font-size="9" fill="#000" text-anchor="middle">100</text>
<line x1="289.59877194167734" y1="310" x2="289.59877194167734" y2="314" stroke="#000"/>
<text x="289.59877194167734" y="326" font-size="9" fill="#000" text-anchor="middle">500</text>
<line x1="327.79938597083867" y1="310" x2="327.79938597083867" y2="314" stroke="#000"/>
<text x="327.79938597083867" y="326" font-size="9" fill="#000" text-anchor="middle">1000</text>
<line x1="366" y1="310" x2="366" y2="314" stroke="#000"/>
<text x="366" y="326" font-size="9" fill="#000" text-anchor="middle">2000</text>
<text x="220" y="352" font-size="10" fill="#000" text-anchor="middle">number of nodes (log)</text>
<text x="15" y="166" font-size="10" fill="#000" text-anchor="middle" transform="rotate(-90 15 166)">reconstruction time ratio (/B)</text>
<line x1="66.0" y1="137.3" x2="66.0" y2="151.7" stroke="#000" stroke-width="0.8"/><line x1="63.0" y1="137.3" x2="69.0" y2="137.3" stroke="#000" stroke-width="0.8"/><line x1="63.0" y1="151.7" x2="69.0" y2="151.7" stroke="#000" stroke-width="0.8"/>
<line x1="154.7" y1="101.7" x2="154.7" y2="178.9" stroke="#000" stroke-width="0.8"/><line x1="151.7" y1="101.7" x2="157.7" y2="101.7" stroke="#000" stroke-width="0.8"/><line x1="151.7" y1="178.9" x2="157.7" y2="178.9" stroke="#000" stroke-width="0.8"/>
<line x1="192.9" y1="60.8" x2="192.9" y2="147.0" stroke="#000" stroke-width="0.8"/><line x1="189.9" y1="60.8" x2="195.9" y2="60.8" stroke="#000" stroke-width="0.8"/><line x1="189.9" y1="147.0" x2="195.9" y2="147.0" stroke="#000" stroke-width="0.8"/>
<line x1="281.6" y1="70.8" x2="281.6" y2="131.0" stroke="#000" stroke-width="0.8"/><line x1="278.6" y1="70.8" x2="284.6" y2="70.8" stroke="#000" stroke-width="0.8"/><line x1="278.6" y1="131.0" x2="284.6" y2="131.0" stroke="#000" stroke-width="0.8"/>
<line x1="319.8" y1="92.4" x2="319.8" y2="151.3" stroke="#000" stroke-width="0.8"/><line x1="316.8" y1="92.4" x2="322.8" y2="92.4" stroke="#000" stroke-width="0.8"/><line x1="316.8" y1="151.3" x2="322.8" y2="151.3" stroke="#000" stroke-width="0.8"/>
<line x1="358.0" y1="53.0" x2="358.0" y2="142.3" stroke="#000" stroke-width="0.8"/><line x1="355.0" y1="53.0" x2="361.0" y2="53.0" stroke="#000" stroke-width="0.8"/><line x1="355.0" y1="142.3" x2="361.0" y2="142.3" stroke="#000" stroke-width="0.8"/>
<path d="M66.0 140.8 L154.7 147.8 L192.9 102.2 L281.6 89.9 L319.8 128.4 L358.0 113.5" fill="none" stroke="#000" stroke-width="1.4" stroke-dasharray="1 3"/>
<path d="M66 136.97671722088222 L69.4 143.67671722088224 L62.6 143.67671722088224 Z" fill="#000"/>
<path d="M154.699078956258 144.0304578431789 L158.099078956258 150.73045784317893 L151.299078956258 150.73045784317893 Z" fill="#000"/>
<path d="M192.89969298541934 98.39290926188264 L196.29969298541934 105.09290926188264 L189.49969298541933 105.09290926188264 Z" fill="#000"/>
<path d="M281.59877194167734 86.06206903128788 L284.9987719416773 92.76206903128788 L278.19877194167736 92.76206903128788 Z" fill="#000"/>
<path d="M319.79938597083867 124.58321685791027 L323.19938597083865 131.28321685791028 L316.3993859708387 131.28321685791028 Z" fill="#000"/>
<path d="M358 109.69217365651893 L361.4 116.39217365651893 L354.6 116.39217365651893 Z" fill="#000"/>
<line x1="82.0" y1="87.7" x2="82.0" y2="119.9" stroke="#000" stroke-width="0.8"/><line x1="79.0" y1="87.7" x2="85.0" y2="87.7" stroke="#000" stroke-width="0.8"/><line x1="79.0" y1="119.9" x2="85.0" y2="119.9" stroke="#000" stroke-width="0.8"/>
<line x1="170.7" y1="152.9" x2="170.7" y2="187.1" stroke="#000" stroke-width="0.8"/><line x1="167.7" y1="152.9" x2="173.7" y2="152.9" stroke="#000" stroke-width="0.8"/><line x1="167.7" y1="187.1" x2="173.7" y2="187.1" stroke="#000" stroke-width="0.8"/>
<line x1="208.9" y1="130.7" x2="208.9" y2="195.9" stroke="#000" stroke-width="0.8"/><line x1="205.9" y1="130.7" x2="211.9" y2="130.7" stroke="#000" stroke-width="0.8"/><line x1="205.9" y1="195.9" x2="211.9" y2="195.9" stroke="#000" stroke-width="0.8"/>
<line x1="297.6" y1="154.9" x2="297.6" y2="199.2" stroke="#000" stroke-width="0.8"/><line x1="294.6" y1="154.9" x2="300.6" y2="154.9" stroke="#000" stroke-width="0.8"/><line x1="294.6" y1="199.2" x2="300.6" y2="199.2" stroke="#000" stroke-width="0.8"/>
<line x1="335.8" y1="169.1" x2="335.8" y2="225.6" stroke="#000" stroke-width="0.8"/><line x1="332.8" y1="169.1" x2="338.8" y2="169.1" stroke="#000" stroke-width="0.8"/><line x1="332.8" y1="225.6" x2="338.8" y2="225.6" stroke="#000" stroke-width="0.8"/>
<line x1="374.0" y1="173.5" x2="374.0" y2="227.3" stroke="#000" stroke-width="0.8"/><line x1="371.0" y1="173.5" x2="377.0" y2="173.5" stroke="#000" stroke-width="0.8"/><line x1="371.0" y1="227.3" x2="377.0" y2="227.3" stroke="#000" stroke-width="0.8"/>
<path d="M82.0 96.4 L170.7 165.8 L208.9 161.3 L297.6 163.2 L335.8 187.9 L374.0 203.3" fill="none" stroke="#000" stroke-width="1.5" />
<polygon points="82.0,91.6 83.4,94.6 86.6,94.9 84.2,97.1 84.8,100.3 82.0,98.7 79.2,100.3 79.8,97.1 77.4,94.9 80.6,94.6" fill="#000"/>
<polygon points="170.7,161.0 172.1,164.0 175.3,164.4 172.9,166.6 173.5,169.7 170.7,168.1 167.9,169.7 168.5,166.6 166.1,164.4 169.3,164.0" fill="#000"/>
<polygon points="208.9,156.5 210.3,159.4 213.5,159.8 211.1,162.0 211.7,165.1 208.9,163.6 206.1,165.1 206.7,162.0 204.3,159.8 207.5,159.4" fill="#000"/>
<polygon points="297.6,158.4 299.0,161.3 302.2,161.7 299.8,163.9 300.4,167.1 297.6,165.5 294.8,167.1 295.4,163.9 293.0,161.7 296.2,161.3" fill="#000"/>
<polygon points="335.8,183.1 337.2,186.0 340.4,186.4 338.0,188.6 338.6,191.8 335.8,190.2 333.0,191.8 333.6,188.6 331.2,186.4 334.4,186.0" fill="#000"/>
<polygon points="374.0,198.5 375.4,201.5 378.6,201.9 376.2,204.0 376.8,207.2 374.0,205.6 371.2,207.2 371.8,204.0 369.4,201.9 372.6,201.5" fill="#000"/>
<line x1="78.0" y1="175.8" x2="78.0" y2="221.0" stroke="#000" stroke-width="0.8"/><line x1="75.0" y1="175.8" x2="81.0" y2="175.8" stroke="#000" stroke-width="0.8"/><line x1="75.0" y1="221.0" x2="81.0" y2="221.0" stroke="#000" stroke-width="0.8"/>
<line x1="166.7" y1="178.1" x2="166.7" y2="225.0" stroke="#000" stroke-width="0.8"/><line x1="163.7" y1="178.1" x2="169.7" y2="178.1" stroke="#000" stroke-width="0.8"/><line x1="163.7" y1="225.0" x2="169.7" y2="225.0" stroke="#000" stroke-width="0.8"/>
<line x1="204.9" y1="165.5" x2="204.9" y2="202.2" stroke="#000" stroke-width="0.8"/><line x1="201.9" y1="165.5" x2="207.9" y2="165.5" stroke="#000" stroke-width="0.8"/><line x1="201.9" y1="202.2" x2="207.9" y2="202.2" stroke="#000" stroke-width="0.8"/>
<line x1="293.6" y1="170.4" x2="293.6" y2="210.9" stroke="#000" stroke-width="0.8"/><line x1="290.6" y1="170.4" x2="296.6" y2="170.4" stroke="#000" stroke-width="0.8"/><line x1="290.6" y1="210.9" x2="296.6" y2="210.9" stroke="#000" stroke-width="0.8"/>
<line x1="331.8" y1="176.5" x2="331.8" y2="208.5" stroke="#000" stroke-width="0.8"/><line x1="328.8" y1="176.5" x2="334.8" y2="176.5" stroke="#000" stroke-width="0.8"/><line x1="328.8" y1="208.5" x2="334.8" y2="208.5" stroke="#000" stroke-width="0.8"/>
<line x1="370.0" y1="177.8" x2="370.0" y2="220.3" stroke="#000" stroke-width="0.8"/><line x1="367.0" y1="177.8" x2="373.0" y2="177.8" stroke="#000" stroke-width="0.8"/><line x1="367.0" y1="220.3" x2="373.0" y2="220.3" stroke="#000" stroke-width="0.8"/>
<path d="M78.0 186.6 L166.7 181.4 L204.9 167.6 L293.6 174.2 L331.8 181.7 L370.0 188.5" fill="none" stroke="#000" stroke-width="1.4" stroke-dasharray="2 2"/>
<path d="M78 182.40891504805447 L81.6 186.60891504805446 L78 190.80891504805444 L74.4 186.60891504805446 Z" fill="#fff" stroke="#000" stroke-width="1.2"/>
<path d="M166.699078956258 177.17219610252528 L170.299078956258 181.37219610252527 L166.699078956258 185.57219610252525 L163.099078956258 181.37219610252527 Z" fill="#fff" stroke="#000" stroke-width="1.2"/>
<path d="M204.89969298541934 163.4351132424533 L208.49969298541933 167.6351132424533 L204.89969298541934 171.83511324245328 L201.29969298541934 167.6351132424533 Z" fill="#fff" stroke="#000" stroke-width="1.2"/>
<path d="M293.59877194167734 169.9659752145348 L297.19877194167736 174.1659752145348 L293.59877194167734 178.36597521453479 L289.9987719416773 174.1659752145348 Z" fill="#fff" stroke="#000" stroke-width="1.2"/>
<path d="M331.79938597083867 177.46560219818704 L335.3993859708387 181.66560219818703 L331.79938597083867 185.86560219818702 L328.19938597083865 181.66560219818703 Z" fill="#fff" stroke="#000" stroke-width="1.2"/>
<path d="M370 184.29275378904487 L373.6 188.49275378904485 L370 192.69275378904484 L366.4 188.49275378904485 Z" fill="#fff" stroke="#000" stroke-width="1.2"/>
<line x1="70.0" y1="174.8" x2="70.0" y2="209.9" stroke="#000" stroke-width="0.8"/><line x1="67.0" y1="174.8" x2="73.0" y2="174.8" stroke="#000" stroke-width="0.8"/><line x1="67.0" y1="209.9" x2="73.0" y2="209.9" stroke="#000" stroke-width="0.8"/>
<line x1="158.7" y1="178.9" x2="158.7" y2="185.6" stroke="#000" stroke-width="0.8"/><line x1="155.7" y1="178.9" x2="161.7" y2="178.9" stroke="#000" stroke-width="0.8"/><line x1="155.7" y1="185.6" x2="161.7" y2="185.6" stroke="#000" stroke-width="0.8"/>
<line x1="196.9" y1="177.3" x2="196.9" y2="208.8" stroke="#000" stroke-width="0.8"/><line x1="193.9" y1="177.3" x2="199.9" y2="177.3" stroke="#000" stroke-width="0.8"/><line x1="193.9" y1="208.8" x2="199.9" y2="208.8" stroke="#000" stroke-width="0.8"/>
<line x1="285.6" y1="179.1" x2="285.6" y2="211.3" stroke="#000" stroke-width="0.8"/><line x1="282.6" y1="179.1" x2="288.6" y2="179.1" stroke="#000" stroke-width="0.8"/><line x1="282.6" y1="211.3" x2="288.6" y2="211.3" stroke="#000" stroke-width="0.8"/>
<line x1="323.8" y1="176.6" x2="323.8" y2="214.0" stroke="#000" stroke-width="0.8"/><line x1="320.8" y1="176.6" x2="326.8" y2="176.6" stroke="#000" stroke-width="0.8"/><line x1="320.8" y1="214.0" x2="326.8" y2="214.0" stroke="#000" stroke-width="0.8"/>
<line x1="362.0" y1="124.3" x2="362.0" y2="188.7" stroke="#000" stroke-width="0.8"/><line x1="359.0" y1="124.3" x2="365.0" y2="124.3" stroke="#000" stroke-width="0.8"/><line x1="359.0" y1="188.7" x2="365.0" y2="188.7" stroke="#000" stroke-width="0.8"/>
<rect x="66.9" y="178.9" width="6.2" height="6.2" fill="#fff" stroke="#000" stroke-width="1.2"/>
<rect x="155.599078956258" y="178.9" width="6.2" height="6.2" fill="#fff" stroke="#000" stroke-width="1.2"/>
<rect x="193.79969298541934" y="178.9" width="6.2" height="6.2" fill="#fff" stroke="#000" stroke-width="1.2"/>
<rect x="282.4987719416773" y="178.9" width="6.2" height="6.2" fill="#fff" stroke="#000" stroke-width="1.2"/>
<rect x="320.69938597083865" y="178.9" width="6.2" height="6.2" fill="#fff" stroke="#000" stroke-width="1.2"/>
<rect x="358.9" y="178.9" width="6.2" height="6.2" fill="#fff" stroke="#000" stroke-width="1.2"/>
<line x1="74.0" y1="208.5" x2="74.0" y2="259.4" stroke="#000" stroke-width="0.8"/><line x1="71.0" y1="208.5" x2="77.0" y2="208.5" stroke="#000" stroke-width="0.8"/><line x1="71.0" y1="259.4" x2="77.0" y2="259.4" stroke="#000" stroke-width="0.8"/>
<line x1="162.7" y1="196.8" x2="162.7" y2="247.0" stroke="#000" stroke-width="0.8"/><line x1="159.7" y1="196.8" x2="165.7" y2="196.8" stroke="#000" stroke-width="0.8"/><line x1="159.7" y1="247.0" x2="165.7" y2="247.0" stroke="#000" stroke-width="0.8"/>
<line x1="200.9" y1="188.7" x2="200.9" y2="248.9" stroke="#000" stroke-width="0.8"/><line x1="197.9" y1="188.7" x2="203.9" y2="188.7" stroke="#000" stroke-width="0.8"/><line x1="197.9" y1="248.9" x2="203.9" y2="248.9" stroke="#000" stroke-width="0.8"/>
<line x1="289.6" y1="171.2" x2="289.6" y2="231.3" stroke="#000" stroke-width="0.8"/><line x1="286.6" y1="171.2" x2="292.6" y2="171.2" stroke="#000" stroke-width="0.8"/><line x1="286.6" y1="231.3" x2="292.6" y2="231.3" stroke="#000" stroke-width="0.8"/>
<line x1="327.8" y1="176.3" x2="327.8" y2="223.2" stroke="#000" stroke-width="0.8"/><line x1="324.8" y1="176.3" x2="330.8" y2="176.3" stroke="#000" stroke-width="0.8"/><line x1="324.8" y1="223.2" x2="330.8" y2="223.2" stroke="#000" stroke-width="0.8"/>
<line x1="366.0" y1="185.8" x2="366.0" y2="245.7" stroke="#000" stroke-width="0.8"/><line x1="363.0" y1="185.8" x2="369.0" y2="185.8" stroke="#000" stroke-width="0.8"/><line x1="363.0" y1="245.7" x2="369.0" y2="245.7" stroke="#000" stroke-width="0.8"/>
<path d="M74.0 232.8 L162.7 226.2 L200.9 218.9 L289.6 199.7 L327.8 199.0 L366.0 213.5" fill="none" stroke="#000" stroke-width="1.4" stroke-dasharray="5 3"/>
<circle cx="74" cy="232.79886263372637" r="3.3" fill="#fff" stroke="#000" stroke-width="1.3"/>
<circle cx="162.699078956258" cy="226.17457310831267" r="3.3" fill="#fff" stroke="#000" stroke-width="1.3"/>
<circle cx="200.89969298541934" cy="218.92324975595056" r="3.3" fill="#fff" stroke="#000" stroke-width="1.3"/>
<circle cx="289.59877194167734" cy="199.67741930100232" r="3.3" fill="#fff" stroke="#000" stroke-width="1.3"/>
<circle cx="327.79938597083867" cy="199.03211898906676" r="3.3" fill="#fff" stroke="#000" stroke-width="1.3"/>
<circle cx="366" cy="213.48372965169344" r="3.3" fill="#fff" stroke="#000" stroke-width="1.3"/>
<line x1="398" y1="30" x2="420" y2="30" stroke="#000" stroke-width="1.4" stroke-dasharray="1 3"/>
<path d="M409 26.2 L412.4 32.9 L405.6 32.9 Z" fill="#000"/>
<text x="426" y="33" font-size="9" fill="#000">A. innerHTML swap</text>
<line x1="398" y1="47" x2="420" y2="47" stroke="#000" stroke-width="1.5" />
<polygon points="409.0,42.2 410.4,45.1 413.6,45.5 411.2,47.7 411.8,50.9 409.0,49.3 406.2,50.9 406.8,47.7 404.4,45.5 407.6,45.1" fill="#000"/>
<text x="426" y="50" font-size="9" fill="#000">React 18.3.1 (ref.)</text>
<line x1="398" y1="64" x2="420" y2="64" stroke="#000" stroke-width="1.4" stroke-dasharray="2 2"/>
<path d="M409 59.8 L412.6 64 L409 68.2 L405.4 64 Z" fill="#fff" stroke="#000" stroke-width="1.2"/>
<text x="426" y="67" font-size="9" fill="#000">D. server-id reconcile</text>
<line x1="398" y1="81" x2="420" y2="81" stroke="#000" stroke-width="1.4" stroke-dasharray="4 2"/>
<rect x="405.9" y="77.9" width="6.2" height="6.2" fill="#fff" stroke="#000" stroke-width="1.2"/>
<text x="426" y="84" font-size="9" fill="#000">B. keyed reconcile (= 1.0)</text>
<line x1="398" y1="98" x2="420" y2="98" stroke="#000" stroke-width="1.4" stroke-dasharray="5 3"/>
<circle cx="409" cy="98" r="3.3" fill="#fff" stroke="#000" stroke-width="1.3"/>
<text x="426" y="101" font-size="9" fill="#000">C. identity reconcile</text>
<text x="398" y="121" font-size="8" fill="#000">whisker = IQR (q1–q3)</text>
<text x="398" y="132" font-size="8" fill="#000">points dodged horizontally</text>
<text x="398" y="143" font-size="8" fill="#000">all-node change, reuse</text>
</svg>